<svg width="50" height="50" viewBox="0 0 50 50" fill="none" xmlns="http://www.w3.org/2000/svg">
<g clip-path="url(#clip0_175_257)">
<path d="M49.9335 24.5107C49.9335 10.9739 38.9596 0 25.4228 0C11.886 0 0.912109 10.9739 0.912109 24.5107C0.912109 36.7446 9.87537 46.8849 21.593 48.7236V31.5958H15.3696V24.5107H21.593V19.1107C21.593 12.9677 25.2524 9.57449 30.8512 9.57449C33.5328 9.57449 36.3377 10.0532 36.3377 10.0532V16.0851H33.2471C30.2022 16.0851 29.2526 17.9746 29.2526 19.913V24.5107H36.0505L34.9638 31.5958H29.2526V48.7236C40.9703 46.8849 49.9335 36.7448 49.9335 24.5107Z" fill="#1877F2"/>
<path d="M34.9637 31.596L36.0504 24.5109H29.2526V19.9132C29.2526 17.9746 30.2022 16.0854 33.247 16.0854H36.3377V10.0534C36.3377 10.0534 33.5327 9.57471 30.8509 9.57471C25.2523 9.57471 21.593 12.9679 21.593 19.1109V24.5109H15.3695V31.596H21.593V48.7239C22.8599 48.9224 24.1404 49.0219 25.4228 49.0216C26.7051 49.0219 27.9856 48.9224 29.2526 48.7239V31.596H34.9637Z" fill="white"/>
</g>
<defs>
<clipPath id="clip0_175_257">
<rect width="49.0214" height="49.0214" fill="white" transform="translate(0.912109)"/>
</clipPath>
</defs>
</svg>
