<svg width="37" height="56" viewBox="0 0 37 56" fill="none" xmlns="http://www.w3.org/2000/svg">
<g clip-path="url(#clip0_329_123)">
<path d="M9.20423 55.7734C14.285 55.7734 18.4085 51.6432 18.4085 46.5543V37.3352H9.20423C4.1235 37.3352 0 41.4654 0 46.5543C0 51.6432 4.1235 55.7734 9.20423 55.7734Z" fill="#0ACF83"/>
<path d="M0 28.116C0 23.0271 4.1235 18.897 9.20423 18.897H18.4085V37.3351H9.20423C4.1235 37.3351 0 33.205 0 28.116Z" fill="#A259FF"/>
<path d="M0 9.67806C0 4.58913 4.1235 0.458984 9.20423 0.458984H18.4085V18.8971H9.20423C4.1235 18.8971 0 14.767 0 9.67806Z" fill="#F24E1E"/>
<path d="M18.4084 0.458984H27.6127C32.6934 0.458984 36.8169 4.58913 36.8169 9.67806C36.8169 14.767 32.6934 18.8971 27.6127 18.8971H18.4084V0.458984Z" fill="#FF7262"/>
<path d="M36.8169 28.116C36.8169 33.205 32.6934 37.3351 27.6127 37.3351C22.5319 37.3351 18.4084 33.205 18.4084 28.116C18.4084 23.0271 22.5319 18.897 27.6127 18.897C32.6934 18.897 36.8169 23.0271 36.8169 28.116Z" fill="#1ABCFE"/>
</g>
<defs>
<clipPath id="clip0_329_123">
<rect width="36.8169" height="55.3144" fill="white" transform="translate(0 0.458984)"/>
</clipPath>
</defs>
</svg>
