<svg xmlns="http://www.w3.org/2000/svg" xmlns:xlink="http://www.w3.org/1999/xlink"
padding="0"  width="1080" zoomAndPan="magnify" viewBox="0 0 1440 809.999993" height="720" preserveAspectRatio="xMidYMid meet" version="1.0"><defs><g/><clipPath id="a61d99fffb"><path d="M 696.121094 354.839844 L 743.878906 354.839844 L 743.878906 455.160156 L 696.121094 455.160156 Z M 696.121094 354.839844 " clip-rule="nonzero"/></clipPath><clipPath id="e8a2db5caa"><path d="M 663.824219 427.976562 L 705.519531 427.976562 L 705.519531 481.976562 L 663.824219 481.976562 Z M 663.824219 427.976562 " clip-rule="nonzero"/></clipPath><clipPath id="03b931986f"><path d="M 743.878906 328.019531 L 785.878906 328.019531 L 785.878906 381.65625 L 743.878906 381.65625 Z M 743.878906 328.019531 " clip-rule="nonzero"/></clipPath></defs><g clip-path="url(#a61d99fffb)"><path fill="#448cc6" d="M 696.121094 354.839844 L 743.878906 354.839844 L 743.878906 455.207031 L 696.121094 455.207031 Z M 696.121094 354.839844 " fill-opacity="1" fill-rule="nonzero"/></g><g clip-path="url(#e8a2db5caa)"><path fill="#ff0000" d="M 705.480469 482.34375 L 705.480469 467.304688 C 705.480469 459.421875 704.300781 452.949219 701.929688 447.902344 C 699.558594 442.855469 695.511719 438.566406 689.785156 435.039062 C 684.054688 431.511719 677.617188 429.160156 670.464844 427.980469 L 670.464844 439.976562 C 675.574219 442.339844 678.476562 445.5 679.171875 449.457031 L 670.464844 449.457031 L 670.464844 482.34375 Z M 658.664062 482.34375 L 658.664062 467.304688 C 658.664062 459.421875 657.480469 452.949219 655.109375 447.902344 C 652.742188 442.855469 648.714844 438.566406 643.027344 435.039062 C 637.34375 431.511719 630.882812 429.160156 623.644531 427.980469 L 623.644531 439.976562 C 628.757812 442.339844 631.660156 445.5 632.351562 449.457031 L 623.644531 449.457031 L 623.644531 482.34375 Z M 658.664062 482.34375 " fill-opacity="1" fill-rule="nonzero"/></g><g clip-path="url(#03b931986f)"><path fill="#ffcc00" d="M 743.917969 327.652344 L 743.917969 342.695312 C 743.917969 350.578125 745.101562 357.046875 747.472656 362.09375 C 749.839844 367.140625 753.886719 371.433594 759.617188 374.960938 C 765.34375 378.488281 771.785156 380.839844 778.9375 382.015625 L 778.9375 370.019531 C 773.824219 367.65625 770.921875 364.496094 770.230469 360.539062 L 778.9375 360.539062 L 778.9375 327.652344 Z M 790.738281 327.652344 L 790.738281 342.695312 C 790.738281 350.578125 791.917969 357.046875 794.289062 362.09375 C 796.660156 367.140625 800.683594 371.433594 806.371094 374.960938 C 812.054688 378.488281 818.515625 380.839844 825.753906 382.015625 L 825.753906 370.019531 C 820.644531 367.65625 817.742188 364.496094 817.046875 360.539062 L 825.753906 360.539062 L 825.753906 327.652344 Z M 790.738281 327.652344 " fill-opacity="1" fill-rule="nonzero"/></g><g fill="#ffffff" fill-opacity="1"><g transform="translate(519.03502, 437.420067)"><g><path d="M 33.03125 -65.140625 C 39.757812 -65.140625 45.296875 -64.191406 49.640625 -62.296875 C 53.984375 -60.398438 57.191406 -57.769531 59.265625 -54.40625 C 61.347656 -51.039062 62.390625 -47.125 62.390625 -42.65625 C 62.390625 -38.257812 61.410156 -34.363281 59.453125 -30.96875 C 57.492188 -27.570312 54.664062 -24.925781 50.96875 -23.03125 C 47.269531 -21.132812 42.820312 -20.1875 37.625 -20.1875 C 36.394531 -20.1875 35.132812 -20.226562 33.84375 -20.3125 C 32.5625 -20.40625 31.492188 -20.484375 30.640625 -20.546875 C 29.785156 -20.609375 29.359375 -20.640625 29.359375 -20.640625 L 29.359375 0 L 5.5 0 L 5.5 -64.21875 C 5.5 -64.21875 6.769531 -64.296875 9.3125 -64.453125 C 11.851562 -64.609375 15.21875 -64.757812 19.40625 -64.90625 C 23.59375 -65.0625 28.132812 -65.140625 33.03125 -65.140625 Z M 29.359375 -37.625 L 33.03125 -37.625 C 34.625 -37.625 35.9375 -38.125 36.96875 -39.125 C 38.007812 -40.132812 38.53125 -41.3125 38.53125 -42.65625 C 38.53125 -44.070312 38.007812 -45.265625 36.96875 -46.234375 C 35.9375 -47.210938 34.625 -47.703125 33.03125 -47.703125 L 29.359375 -47.703125 Z M 29.359375 -37.625 "/></g></g></g><g fill="#ffffff" fill-opacity="1"><g transform="translate(584.174696, 437.420067)"><g><path d="M 50.921875 -64.21875 C 50.921875 -64.164062 51.195312 -63.21875 51.75 -61.375 C 52.300781 -59.539062 53.019531 -57.09375 53.90625 -54.03125 C 54.789062 -50.976562 55.78125 -47.554688 56.875 -43.765625 C 57.976562 -39.972656 59.125 -36.039062 60.3125 -31.96875 C 61.507812 -27.90625 62.675781 -23.976562 63.8125 -20.1875 C 64.945312 -16.394531 65.957031 -12.984375 66.84375 -9.953125 C 67.726562 -6.921875 68.429688 -4.503906 68.953125 -2.703125 C 69.472656 -0.898438 69.734375 0 69.734375 0 L 43.125 0 L 41.28125 -9.171875 L 29.359375 -9.171875 L 27.53125 0 L 0.921875 0 L 19.71875 -64.21875 Z M 32.109375 -23.859375 L 38.53125 -23.859375 L 35.328125 -40.375 Z M 32.109375 -23.859375 "/></g></g></g><g fill="#ffffff" fill-opacity="1"><g transform="translate(654.819139, 437.420067)"><g><path d="M 29.359375 -22.9375 L 29.359375 -18.34375 L 56.890625 -18.34375 L 56.890625 0 L 5.5 0 L 5.5 -64.21875 L 55.046875 -64.21875 L 55.046875 -45.875 L 29.359375 -45.875 L 29.359375 -41.28125 L 53.21875 -41.28125 L 53.21875 -22.9375 Z M 29.359375 -22.9375 "/></g></g></g><g fill="#ffffff" fill-opacity="1"><g transform="translate(714.454047, 437.420067)"><g><path d="M 29.359375 -22.9375 L 29.359375 -18.34375 L 56.890625 -18.34375 L 56.890625 0 L 5.5 0 L 5.5 -64.21875 L 55.046875 -64.21875 L 55.046875 -45.875 L 29.359375 -45.875 L 29.359375 -41.28125 L 53.21875 -41.28125 L 53.21875 -22.9375 Z M 29.359375 -22.9375 "/></g></g></g><g fill="#ffffff" fill-opacity="1"><g transform="translate(774.088977, 437.420067)"><g><path d="M 20.1875 -28.4375 L 20.1875 -64.21875 L 44.046875 -64.21875 L 44.046875 -28.4375 C 44.046875 -22.019531 42.851562 -16.484375 40.46875 -11.828125 C 38.082031 -7.179688 34.945312 -3.585938 31.0625 -1.046875 C 27.175781 1.484375 22.9375 2.75 18.34375 2.75 C 14.375 2.75 11.023438 2.289062 8.296875 1.375 C 5.578125 0.457031 3.515625 -0.457031 2.109375 -1.375 C 0.703125 -2.289062 0 -2.75 0 -2.75 L 6.421875 -22.015625 C 6.421875 -22.015625 7.03125 -21.707031 8.25 -21.09375 C 9.476562 -20.488281 11.007812 -20.1875 12.84375 -20.1875 C 14.925781 -20.1875 16.671875 -20.9375 18.078125 -22.4375 C 19.484375 -23.9375 20.1875 -25.9375 20.1875 -28.4375 Z M 20.1875 -28.4375 "/></g></g></g><g fill="#ffffff" fill-opacity="1"><g transform="translate(823.631822, 437.420067)"><g><path d="M 50.921875 -64.21875 C 50.921875 -64.164062 51.195312 -63.21875 51.75 -61.375 C 52.300781 -59.539062 53.019531 -57.09375 53.90625 -54.03125 C 54.789062 -50.976562 55.78125 -47.554688 56.875 -43.765625 C 57.976562 -39.972656 59.125 -36.039062 60.3125 -31.96875 C 61.507812 -27.90625 62.675781 -23.976562 63.8125 -20.1875 C 64.945312 -16.394531 65.957031 -12.984375 66.84375 -9.953125 C 67.726562 -6.921875 68.429688 -4.503906 68.953125 -2.703125 C 69.472656 -0.898438 69.734375 0 69.734375 0 L 43.125 0 L 41.28125 -9.171875 L 29.359375 -9.171875 L 27.53125 0 L 0.921875 0 L 19.71875 -64.21875 Z M 32.109375 -23.859375 L 38.53125 -23.859375 L 35.328125 -40.375 Z M 32.109375 -23.859375 "/></g></g></g></svg>