<svg width="56" height="57" viewBox="0 0 56 57" fill="none" xmlns="http://www.w3.org/2000/svg">
<g clip-path="url(#clip0_329_129)">
<path d="M42.7779 0.458984H13.0953C5.86295 0.458984 0 6.32194 0 13.5543V43.2369C0 50.4692 5.86295 56.3322 13.0953 56.3322H42.7779C50.0102 56.3322 55.8732 50.4692 55.8732 43.2369V13.5543C55.8732 6.32194 50.0102 0.458984 42.7779 0.458984Z" fill="#F0DB4F"/>
<path d="M14.6913 47.1508L18.9669 44.5631C19.7919 46.0257 20.5422 47.2632 22.3422 47.2632C24.0675 47.2632 25.1553 46.5883 25.1553 43.9632V26.1104H30.406V44.0374C30.406 49.4756 27.2182 51.9511 22.5672 51.9511C18.3669 51.9511 15.9288 49.7757 14.691 47.1503M33.258 46.5881L37.5331 44.1129C38.6587 45.9508 40.1214 47.3009 42.709 47.3009C44.8848 47.3009 46.272 46.2132 46.272 44.7129C46.272 42.9127 44.8468 42.275 42.4465 41.2252L41.1341 40.6623C37.3459 39.0498 34.8329 37.0244 34.8329 32.7488C34.8329 28.8106 37.8334 25.8101 42.5218 25.8101C45.8598 25.8101 48.2601 26.9729 49.9852 30.0108L45.8971 32.6362C44.9968 31.0235 44.0221 30.386 42.5218 30.386C40.984 30.386 40.0088 31.3611 40.0088 32.6362C40.0088 34.2113 40.9839 34.8491 43.2342 35.8245L44.5467 36.3869C49.0098 38.2999 51.5228 40.2498 51.5228 44.6378C51.5228 49.3639 47.8099 51.9515 42.8217 51.9515C37.9461 51.9515 34.7956 49.6262 33.258 46.5881Z" fill="#323330"/>
</g>
<defs>
<clipPath id="clip0_329_129">
<rect width="55.8732" height="55.8732" fill="white" transform="translate(0 0.458984)"/>
</clipPath>
</defs>
</svg>
