<svg width="56" height="57" viewBox="0 0 56 57" fill="none" xmlns="http://www.w3.org/2000/svg">
<g clip-path="url(#clip0_329_133)">
<path d="M42.7779 0.458984H13.0953C5.86295 0.458984 0 6.32194 0 13.5543V43.2369C0 50.4692 5.86295 56.3322 13.0953 56.3322H42.7779C50.0102 56.3322 55.8732 50.4692 55.8732 43.2369V13.5543C55.8732 6.32194 50.0102 0.458984 42.7779 0.458984Z" fill="#E14E1D"/>
<path d="M10.4762 8.75281L12.3554 29.8347H36.5183L35.7075 38.877L27.9276 40.9805L20.1623 38.88L19.6431 33.074H12.6456L13.6463 44.2663L27.9261 48.2324L42.2239 44.2663L44.1409 22.8641H18.7315L18.0935 15.725H44.7725L45.3969 8.75281H10.4762Z" fill="white"/>
<path d="M27.9366 8.75281H10.4762L12.3554 29.8347H27.9366V22.8641H18.7315L18.0935 15.725H27.9366V8.75281ZM27.9366 40.9774L27.9276 40.9805L20.1623 38.88L19.6431 33.074H12.6456L13.6463 44.2663L27.9261 48.2324L27.9368 48.2294L27.9366 40.9774Z" fill="#EBEBEB"/>
</g>
<defs>
<clipPath id="clip0_329_133">
<rect width="55.8732" height="55.8732" fill="white" transform="translate(0 0.458984)"/>
</clipPath>
</defs>
</svg>
