<svg width="47" height="47" viewBox="0 0 47 47" fill="none" xmlns="http://www.w3.org/2000/svg">
<g clip-path="url(#clip0_175_251)">
<path d="M16.1622 1.52568C11.5266 3.13382 7.52888 6.18611 4.75621 10.2342C1.98354 14.2823 0.582084 19.1129 0.757701 24.0164C0.933318 28.9199 2.67675 33.6378 5.73191 37.4772C8.78707 41.3166 12.9929 44.0751 17.7317 45.3475C21.5735 46.3388 25.5986 46.3823 29.461 45.4743C32.9599 44.6884 36.1948 43.0073 38.8488 40.5956C41.611 38.0088 43.616 34.7181 44.6482 31.0773C45.7701 27.118 45.9697 22.9542 45.2318 18.9058H23.658V27.855H36.1521C35.9024 29.2823 35.3673 30.6446 34.5788 31.8603C33.7903 33.076 32.7647 34.1202 31.5633 34.9303C30.0376 35.9395 28.3178 36.6185 26.5142 36.9238C24.7053 37.2602 22.8499 37.2602 21.041 36.9238C19.2076 36.5448 17.4732 35.7881 15.9484 34.7019C13.4987 32.9678 11.6593 30.5043 10.6927 27.6629C9.70971 24.7682 9.70971 21.6301 10.6927 18.7354C11.3807 16.7064 12.5181 14.859 14.0201 13.3311C15.7388 11.5505 17.9149 10.2777 20.3094 9.65238C22.7039 9.02706 25.2244 9.07336 27.5943 9.78621C29.4457 10.3545 31.1386 11.3475 32.5383 12.6859C33.9471 11.2844 35.3534 9.87925 36.7574 8.47047C37.4823 7.71293 38.2725 6.99162 38.9865 6.21595C36.85 4.22776 34.3422 2.6807 31.6068 1.66342C26.6255 -0.145306 21.175 -0.193914 16.1622 1.52568Z" fill="white"/>
<path d="M16.1622 1.52598C21.1746 -0.194786 26.6251 -0.147458 31.6068 1.66009C34.3427 2.68428 36.8494 4.23879 38.9829 6.23438C38.258 7.01005 37.4932 7.73497 36.7538 8.48889C35.3474 9.89283 33.9423 11.2919 32.5383 12.6862C31.1387 11.3478 29.4457 10.3548 27.5943 9.78651C25.2252 9.07116 22.7048 9.02218 20.3096 9.64494C17.9145 10.2677 15.7371 11.5382 14.0165 13.3169C12.5145 14.8448 11.3771 16.6922 10.689 18.7212L3.17519 12.9037C5.8647 7.57027 10.5214 3.49062 16.1622 1.52598Z" fill="#E33629"/>
<path d="M1.18161 18.667C1.58547 16.6654 2.25597 14.7271 3.17516 12.9038L10.689 18.7358C9.70607 21.6305 9.70607 24.7686 10.689 27.6633C8.1856 29.5964 5.68099 31.5392 3.17516 33.4917C0.874065 28.9113 0.172272 23.6925 1.18161 18.667Z" fill="#F8BD00"/>
<path d="M23.658 18.9019H45.2318C45.9697 22.9503 45.7701 27.1141 44.6482 31.0734C43.616 34.7142 41.611 38.0049 38.8488 40.5916C36.4239 38.6996 33.9882 36.822 31.5633 34.93C32.7655 34.1191 33.7916 33.0738 34.5801 31.8568C35.3686 30.6397 35.9033 29.2761 36.1521 27.8474H23.658C23.6543 24.868 23.658 21.8849 23.658 18.9019Z" fill="#587DBD"/>
<path d="M3.1715 33.491C5.67733 31.5579 8.18195 29.6151 10.6854 27.6626C11.6539 30.505 13.4959 32.9687 15.9483 34.7016C17.4779 35.7827 19.216 36.5333 21.0518 36.9054C22.8607 37.2418 24.7161 37.2418 26.525 36.9054C28.3286 36.6001 30.0484 35.9211 31.5741 34.9119C33.999 36.8039 36.4347 38.6815 38.8596 40.5735C36.206 42.9865 32.9711 44.6689 29.4718 45.4559C25.6094 46.3639 21.5843 46.3204 17.7425 45.329C14.704 44.5177 11.8658 43.0876 9.40587 41.1281C6.80216 39.0609 4.67556 36.4559 3.1715 33.491Z" fill="#319F43"/>
</g>
<defs>
<clipPath id="clip0_175_251">
<rect width="46.3953" height="46.3953" fill="white"/>
</clipPath>
</defs>
</svg>
