<svg width="49" height="49" viewBox="0 0 49 49" fill="none" xmlns="http://www.w3.org/2000/svg">
<g clip-path="url(#clip0_175_260)">
<path d="M37.5156 0H11.4844C5.14173 0 0 5.14173 0 11.4844V37.5156C0 43.8583 5.14173 49 11.4844 49H37.5156C43.8583 49 49 43.8583 49 37.5156V11.4844C49 5.14173 43.8583 0 37.5156 0Z" fill="white"/>
<path d="M37.5156 0H11.4844C5.14173 0 0 5.14173 0 11.4844V37.5156C0 43.8583 5.14173 49 11.4844 49H37.5156C43.8583 49 49 43.8583 49 37.5156V11.4844C49 5.14173 43.8583 0 37.5156 0Z" fill="#0A66C2"/>
<path d="M35.3557 41.6663H40.9581C41.1612 41.6663 41.3559 41.5856 41.4994 41.4421C41.643 41.2985 41.7237 41.1039 41.7238 40.9008L41.7266 29.0639C41.7266 22.8771 40.3935 18.1216 33.1635 18.1216C30.4151 18.0194 27.8233 19.4362 26.4247 21.8019C26.4178 21.8134 26.4074 21.8224 26.395 21.8274C26.3826 21.8324 26.3689 21.8332 26.356 21.8297C26.3431 21.8263 26.3317 21.8186 26.3235 21.808C26.3154 21.7975 26.3109 21.7845 26.3108 21.7711V19.4584C26.3108 19.2553 26.2301 19.0606 26.0865 18.917C25.9429 18.7734 25.7482 18.6927 25.5451 18.6927H20.2284C20.0254 18.6927 19.8307 18.7734 19.6871 18.917C19.5435 19.0606 19.4628 19.2553 19.4628 19.4584V40.8997C19.4628 41.1027 19.5435 41.2975 19.6871 41.4411C19.8307 41.5846 20.0254 41.6653 20.2284 41.6653H25.8305C26.0336 41.6653 26.2283 41.5846 26.3719 41.4411C26.5155 41.2975 26.5962 41.1027 26.5962 40.8997V30.3009C26.5962 27.3041 27.1646 24.4018 30.88 24.4018C34.5426 24.4018 34.59 27.831 34.59 30.495V40.9006C34.59 41.1037 34.6707 41.2984 34.8143 41.442C34.9579 41.5856 35.1526 41.6663 35.3557 41.6663ZM7.2735 11.4132C7.2735 13.684 9.14296 15.5525 11.414 15.5525C13.6845 15.5523 15.5528 13.6827 15.5528 11.4122C15.5524 9.14175 13.6839 7.27344 11.4132 7.27344C9.14201 7.27344 7.2735 9.14233 7.2735 11.4132ZM8.60549 41.6663H14.215C14.4181 41.6663 14.6128 41.5856 14.7564 41.442C14.9 41.2984 14.9807 41.1037 14.9807 40.9006V19.4584C14.9807 19.2553 14.9 19.0606 14.7564 18.917C14.6128 18.7734 14.4181 18.6927 14.215 18.6927H8.60549C8.40244 18.6927 8.2077 18.7734 8.06412 18.917C7.92053 19.0606 7.83987 19.2553 7.83987 19.4584V40.9006C7.83987 41.1037 7.92053 41.2984 8.06412 41.442C8.2077 41.5856 8.40244 41.6663 8.60549 41.6663Z" fill="white"/>
</g>
<defs>
<clipPath id="clip0_175_260">
<rect width="49" height="49" fill="white"/>
</clipPath>
</defs>
</svg>
