<svg width="56" height="57" viewBox="0 0 56 57" fill="none" xmlns="http://www.w3.org/2000/svg">
<g clip-path="url(#clip0_329_138)">
<path d="M42.7779 0.585693H13.0953C5.86295 0.585693 0 6.44865 0 13.681V43.3636C0 50.5959 5.86295 56.4589 13.0953 56.4589H42.7779C50.0102 56.4589 55.8732 50.5959 55.8732 43.3636V13.681C55.8732 6.44865 50.0102 0.585693 42.7779 0.585693Z" fill="#0277BD"/>
<path d="M11.7318 22.9899L12.3565 29.9614H27.9575V22.9899H11.7318ZM27.9573 8.87952H10.4762L11.11 15.851H27.9573V8.87952ZM27.9573 48.3489V41.0956L27.9267 41.1037L20.1626 39.0074L19.6662 33.4471H12.6679L13.6446 44.3935L27.9252 48.3578L27.9573 48.3489Z" fill="#EBEBEB"/>
<path d="M36.518 29.9614L35.7087 39.0028L27.9333 41.1015V48.3544L42.2253 44.3935L42.3301 43.2155L43.9683 24.8621L44.1383 22.9899L45.397 8.87952H27.9333V15.851H37.7568L37.1225 22.9899H27.9333V29.9614H36.518Z" fill="white"/>
</g>
<defs>
<clipPath id="clip0_329_138">
<rect width="55.8732" height="55.8732" fill="white" transform="translate(0 0.585693)"/>
</clipPath>
</defs>
</svg>
